<?xml version="1.0" encoding="UTF-8" standalone="no"?>
<!DOCTYPE svg PUBLIC "-//W3C//DTD SVG 1.1//EN" "http://www.w3.org/Graphics/SVG/1.1/DTD/svg11.dtd">
<svg width="100%" height="100%" viewBox="0 0 512 512" version="1.1" xmlns="http://www.w3.org/2000/svg" xmlns:xlink="http://www.w3.org/1999/xlink" xml:space="preserve" xmlns:serif="http://www.serif.com/" style="fill-rule:evenodd;clip-rule:evenodd;stroke-linecap:round;stroke-linejoin:round;stroke-miterlimit:1.5;">
    <g transform="matrix(1.075501,0,0,1.137083,-28.343036,-27.944883)">
        <path d="M491.045,86.059L491.045,413.368C491.045,432.723 474.431,448.437 453.968,448.437L74.796,448.437C54.333,448.437 37.719,432.723 37.719,413.368L37.719,86.059C37.719,66.704 54.333,50.99 74.796,50.99L453.968,50.99C474.431,50.99 491.045,66.704 491.045,86.059Z" style="fill:rgb(0,70,62);"/>
        <path d="M497.437,86.059L497.437,413.368C497.437,436.06 477.96,454.483 453.968,454.483L74.796,454.483C50.804,454.483 31.327,436.06 31.327,413.368L31.327,86.059C31.327,63.367 50.804,44.944 74.796,44.944L453.968,44.944C477.96,44.944 497.437,63.367 497.437,86.059ZM484.653,86.059C484.653,70.041 470.903,57.037 453.968,57.037L74.796,57.037C57.861,57.037 44.111,70.041 44.111,86.059L44.111,413.368C44.111,429.386 57.861,442.39 74.796,442.39L453.968,442.39C470.903,442.39 484.653,429.386 484.653,413.368L484.653,86.059Z" style="fill:rgb(0,191,240);"/>
    </g>
    <g id="Chmura" transform="matrix(1.201835,0,0,1.353414,5.291858,-139.764384)">
        <path d="M100.584,306.641L341.943,306.641C357.941,306.641 372.45,298.305 379.008,285.347C385.565,272.389 382.95,257.22 372.327,246.597C350.136,224.406 325.453,199.723 305.096,179.366C294.231,168.501 278.65,162.284 262.287,162.284C245.923,162.284 230.342,168.501 219.477,179.366C217.145,181.699 214.916,183.927 212.855,185.989C209.622,189.221 204.988,191.07 200.12,191.07C195.253,191.07 190.618,189.221 187.386,185.989C187.385,185.988 187.385,185.988 187.384,185.987C181.132,179.735 172.166,176.157 162.75,176.157C153.334,176.157 144.368,179.735 138.116,185.987C112.15,211.954 71.236,252.868 43.458,280.646C38.413,285.69 37.269,292.93 40.554,299.013C43.839,305.096 50.913,308.835 58.501,308.5C79.766,307.561 100.584,306.641 100.584,306.641Z" style="fill:rgb(193,245,255);stroke:rgb(0,191,240);stroke-width:5.53px;"/>
    </g>
    <g transform="matrix(0,0.620067,-1.612807,0,757.312476,135.520863)">
        <path d="M184.523,370.351L184.523,399.007L69.85,354.92L184.523,310.832L184.523,339.489L422.551,339.489L422.551,370.351L184.523,370.351Z" style="fill:rgb(255,55,46);stroke:rgb(0,191,240);stroke-width:5.8px;"/>
    </g>
    <g transform="matrix(0,-0.620067,1.612807,0,-223.658997,440.84236)">
        <path d="M184.523,370.351L184.523,399.007L69.85,354.92L184.523,310.832L184.523,339.489L422.551,339.489L422.551,370.351L184.523,370.351Z" style="fill:rgb(32,162,0);stroke:rgb(0,191,240);stroke-width:5.8px;"/>
    </g>
</svg>
