<?xml version="1.0" encoding="UTF-8" standalone="no"?>
<!DOCTYPE svg PUBLIC "-//W3C//DTD SVG 1.1//EN" "http://www.w3.org/Graphics/SVG/1.1/DTD/svg11.dtd">
<svg width="100%" height="100%" viewBox="0 0 512 512" version="1.1" xmlns="http://www.w3.org/2000/svg" xmlns:xlink="http://www.w3.org/1999/xlink" xml:space="preserve" xmlns:serif="http://www.serif.com/" style="fill-rule:evenodd;clip-rule:evenodd;stroke-linecap:round;stroke-linejoin:round;stroke-miterlimit:1.5;">
    <g transform="matrix(1.075501,0,0,1.137083,-28.343036,-27.944883)">
        <path d="M491.045,86.059L491.045,413.368C491.045,432.723 474.431,448.437 453.968,448.437L74.796,448.437C54.333,448.437 37.719,432.723 37.719,413.368L37.719,86.059C37.719,66.704 54.333,50.99 74.796,50.99L453.968,50.99C474.431,50.99 491.045,66.704 491.045,86.059Z" style="fill:rgb(0,121,194);"/>
        <path d="M497.437,86.059L497.437,413.368C497.437,436.06 477.96,454.483 453.968,454.483L74.796,454.483C50.804,454.483 31.327,436.06 31.327,413.368L31.327,86.059C31.327,63.367 50.804,44.944 74.796,44.944L453.968,44.944C477.96,44.944 497.437,63.367 497.437,86.059ZM484.653,86.059C484.653,70.041 470.903,57.037 453.968,57.037L74.796,57.037C57.861,57.037 44.111,70.041 44.111,86.059L44.111,413.368C44.111,429.386 57.861,442.39 74.796,442.39L453.968,442.39C470.903,442.39 484.653,429.386 484.653,413.368L484.653,86.059Z" style="fill:rgb(0,191,240);"/>
    </g>
    <path d="M126.512,277.237L203.347,277.237" style="fill:none;stroke:white;stroke-width:7.08px;"/>
    <path d="M203.347,249.79L203.347,371.248C203.347,374.99 200.309,378.028 196.568,378.028L133.292,378.028C129.55,378.028 126.512,374.99 126.512,371.248L126.512,249.79C126.512,246.049 129.55,243.011 133.292,243.011L196.568,243.011C200.309,243.011 203.347,246.049 203.347,249.79Z" style="fill:none;stroke:white;stroke-width:7.08px;"/>
    <g transform="matrix(1,0,0,1,-18.160982,5.727695)">
        <path d="M94.996,216.535L453.326,216.535" style="fill:none;stroke:white;stroke-width:16.25px;"/>
    </g>
    <g transform="matrix(1,0,0,1,0,-22.910777)">
        <path d="M101.981,245.173L101.981,400.939" style="fill:none;stroke:white;stroke-width:16.25px;"/>
    </g>
    <g transform="matrix(1,0,0,1,0,-22.910777)">
        <path d="M417.004,245.173L417.004,400.939" style="fill:none;stroke:white;stroke-width:16.25px;"/>
    </g>
    <g transform="matrix(0.661392,0,0,1,70.868767,-5.587994)">
        <path d="M402.419,129.854L402.419,175.955C402.419,188.677 386.803,199.005 367.568,199.005L216.545,199.005C197.31,199.005 181.694,188.677 181.694,175.955L181.694,129.854C181.694,117.132 197.31,106.803 216.545,106.803L367.568,106.803C386.803,106.803 402.419,117.132 402.419,129.854Z" style="fill:rgb(0,121,194);stroke:white;stroke-width:8.36px;"/>
    </g>
    <path d="M289.263,198.656L289.263,209.133C289.263,212.025 286.915,214.372 284.024,214.372L245.606,214.372C242.715,214.372 240.368,212.025 240.368,209.133L240.368,198.656C240.368,195.765 242.715,193.417 245.606,193.417L284.024,193.417C286.915,193.417 289.263,195.765 289.263,198.656Z" style="fill:white;stroke:white;stroke-width:7.08px;"/>
    <g transform="matrix(1,0,0,1,16.763983,0)">
        <circle cx="170.064" cy="261.135" r="5.135" style="fill:rgb(255,15,15);"/>
    </g>
</svg>
