<?xml version="1.0" encoding="UTF-8" standalone="no"?>
<!DOCTYPE svg PUBLIC "-//W3C//DTD SVG 1.1//EN" "http://www.w3.org/Graphics/SVG/1.1/DTD/svg11.dtd">
<svg width="100%" height="100%" viewBox="0 0 512 512" version="1.1" xmlns="http://www.w3.org/2000/svg" xmlns:xlink="http://www.w3.org/1999/xlink" xml:space="preserve" xmlns:serif="http://www.serif.com/" style="fill-rule:evenodd;clip-rule:evenodd;stroke-linecap:round;stroke-linejoin:round;stroke-miterlimit:1.5;">
    <g transform="matrix(1.075501,0,0,1.137083,-28.343036,-27.944883)">
        <path d="M491.045,86.059L491.045,413.368C491.045,432.723 474.431,448.437 453.968,448.437L74.796,448.437C54.333,448.437 37.719,432.723 37.719,413.368L37.719,86.059C37.719,66.704 54.333,50.99 74.796,50.99L453.968,50.99C474.431,50.99 491.045,66.704 491.045,86.059Z" style="fill:rgb(0,70,194);"/>
        <path d="M497.437,86.059L497.437,413.368C497.437,436.06 477.96,454.483 453.968,454.483L74.796,454.483C50.804,454.483 31.327,436.06 31.327,413.368L31.327,86.059C31.327,63.367 50.804,44.944 74.796,44.944L453.968,44.944C477.96,44.944 497.437,63.367 497.437,86.059ZM484.653,86.059C484.653,70.041 470.903,57.037 453.968,57.037L74.796,57.037C57.861,57.037 44.111,70.041 44.111,86.059L44.111,413.368C44.111,429.386 57.861,442.39 74.796,442.39L453.968,442.39C470.903,442.39 484.653,429.386 484.653,413.368L484.653,86.059Z" style="fill:rgb(0,191,240);"/>
    </g>
    <path d="M109.664,303.149L402.685,303.149L317.119,153.67L228.409,271.018L176.72,199.072L109.664,303.149Z" style="fill:rgb(64,178,0);stroke:white;stroke-width:5.83px;"/>
    <g transform="matrix(1,0,0,1.198704,-4.540246,-90.0868)">
        <path d="M428.879,147.718L428.879,421.559C428.879,435.236 415.567,446.341 399.172,446.341L121.909,446.341C105.513,446.341 92.202,435.236 92.202,421.559L92.202,147.718C92.202,134.041 105.513,122.936 121.909,122.936L399.172,122.936C415.567,122.936 428.879,134.041 428.879,147.718Z" style="fill:none;stroke:white;stroke-width:5.28px;"/>
    </g>
    <path d="M402.685,114.8L402.685,338.875C402.685,357.901 387.238,373.348 368.212,373.348L144.137,373.348C125.111,373.348 109.664,357.901 109.664,338.875L109.664,114.8C109.664,95.774 125.111,80.327 144.137,80.327L368.212,80.327C387.238,80.327 402.685,95.774 402.685,114.8Z" style="fill:none;stroke:white;stroke-width:5.83px;"/>
    <g transform="matrix(1,0,0,1,40.86221,12.223738)">
        <circle cx="185.452" cy="141.446" r="29.686" style="fill:rgb(255,178,0);stroke:white;stroke-width:3.75px;"/>
    </g>
</svg>
